<mxfile host="app.diagrams.net" modified="2021-06-09T03:33:25.024Z" agent="5.0 (Windows NT 10.0; Win64; x64) AppleWebKit/537.36 (KHTML, like Gecko) Chrome/90.0.4430.212 Safari/537.36" etag="YgYncnh9JiLhxIV1yMvT" version="14.7.3" type="github">
  <diagram id="-GdPQ9BeZMQRRu7nCC9y" name="Page-1">
    <mxGraphModel dx="868" dy="450" grid="1" gridSize="10" guides="1" tooltips="1" connect="1" arrows="1" fold="1" page="1" pageScale="1" pageWidth="827" pageHeight="1169" math="0" shadow="0">
      <root>
        <mxCell id="0" />
        <mxCell id="1" parent="0" />
        <mxCell id="vX-vixm7UbsISbDQlSkW-2" value="" style="rounded=0;whiteSpace=wrap;html=1;" vertex="1" parent="1">
          <mxGeometry x="170" y="120" width="390" height="480" as="geometry" />
        </mxCell>
        <mxCell id="vX-vixm7UbsISbDQlSkW-3" value="" style="ellipse;whiteSpace=wrap;html=1;" vertex="1" parent="1">
          <mxGeometry x="320" y="160" width="90" height="60" as="geometry" />
        </mxCell>
        <mxCell id="vX-vixm7UbsISbDQlSkW-5" value="開始" style="text;align=center;verticalAlign=middle;resizable=0;points=[];autosize=1;strokeColor=none;" vertex="1" parent="1">
          <mxGeometry x="345" y="180" width="40" height="20" as="geometry" />
        </mxCell>
        <mxCell id="vX-vixm7UbsISbDQlSkW-6" value="" style="rounded=0;whiteSpace=wrap;html=1;" vertex="1" parent="1">
          <mxGeometry x="195" y="250" width="340" height="50" as="geometry" />
        </mxCell>
        <mxCell id="vX-vixm7UbsISbDQlSkW-7" value="レシピ提案で利用する特定栄養素を決定する。&#xa;(利用する栄養素をj番目の栄養素とする。)&#xa;[栄養素1,栄養素2,...,栄養素j,...栄養素n]" style="text;align=center;verticalAlign=middle;resizable=0;points=[];autosize=1;strokeColor=none;" vertex="1" parent="1">
          <mxGeometry x="230" y="250" width="270" height="50" as="geometry" />
        </mxCell>
        <mxCell id="vX-vixm7UbsISbDQlSkW-9" value="" style="edgeStyle=orthogonalEdgeStyle;html=1;endArrow=openThin;elbow=vertical;startArrow=none;endFill=0;strokeColor=#545B64;rounded=0;" edge="1" parent="1">
          <mxGeometry width="100" relative="1" as="geometry">
            <mxPoint x="364.5" y="220" as="sourcePoint" />
            <mxPoint x="365" y="250" as="targetPoint" />
            <Array as="points">
              <mxPoint x="365" y="230" />
              <mxPoint x="365" y="230" />
            </Array>
          </mxGeometry>
        </mxCell>
        <mxCell id="vX-vixm7UbsISbDQlSkW-12" value="" style="edgeStyle=orthogonalEdgeStyle;html=1;endArrow=openThin;elbow=vertical;startArrow=none;endFill=0;strokeColor=#545B64;rounded=0;" edge="1" parent="1">
          <mxGeometry width="100" relative="1" as="geometry">
            <mxPoint x="364.5" y="300" as="sourcePoint" />
            <mxPoint x="365" y="330" as="targetPoint" />
            <Array as="points">
              <mxPoint x="365" y="310" />
              <mxPoint x="365" y="310" />
            </Array>
          </mxGeometry>
        </mxCell>
        <mxCell id="vX-vixm7UbsISbDQlSkW-13" value="" style="verticalLabelPosition=bottom;verticalAlign=top;html=1;shape=mxgraph.basic.rect;fillColor2=none;strokeWidth=1;size=20;indent=5;rounded=0;labelBackgroundColor=#ffffff;sketch=0;fillColor=none;labelBorderColor=none;" vertex="1" parent="1">
          <mxGeometry x="195" y="330" width="340" height="60" as="geometry" />
        </mxCell>
        <mxCell id="vX-vixm7UbsISbDQlSkW-14" value="上記のj番目の栄養素の&#xa;レシピ1人前当たりの許容最大含有量dj,許容最小含有量ejを&#xa;システム開発者あるいはシステム利用者が設定する。" style="text;align=center;verticalAlign=middle;resizable=0;points=[];autosize=1;" vertex="1" parent="1">
          <mxGeometry x="200" y="335" width="330" height="50" as="geometry" />
        </mxCell>
        <mxCell id="vX-vixm7UbsISbDQlSkW-15" value="" style="edgeStyle=orthogonalEdgeStyle;html=1;endArrow=openThin;elbow=vertical;startArrow=none;endFill=0;strokeColor=#545B64;rounded=0;" edge="1" parent="1">
          <mxGeometry width="100" relative="1" as="geometry">
            <mxPoint x="364.5" y="390" as="sourcePoint" />
            <mxPoint x="365" y="420" as="targetPoint" />
            <Array as="points">
              <mxPoint x="365" y="400" />
              <mxPoint x="365" y="400" />
            </Array>
          </mxGeometry>
        </mxCell>
        <mxCell id="vX-vixm7UbsISbDQlSkW-18" value="" style="rounded=0;whiteSpace=wrap;html=1;" vertex="1" parent="1">
          <mxGeometry x="195" y="420" width="340" height="50" as="geometry" />
        </mxCell>
        <mxCell id="vX-vixm7UbsISbDQlSkW-19" value="代替食材の全ての組み合わせから&#xa;許容最大含有量dj,許容最小含有量ejの条件を満たす&#xa;代替食材の組み合わせを抽出する。" style="text;align=center;verticalAlign=middle;resizable=0;points=[];autosize=1;strokeColor=none;" vertex="1" parent="1">
          <mxGeometry x="220" y="420" width="290" height="50" as="geometry" />
        </mxCell>
        <mxCell id="vX-vixm7UbsISbDQlSkW-20" value="" style="edgeStyle=orthogonalEdgeStyle;html=1;endArrow=openThin;elbow=vertical;startArrow=none;endFill=0;strokeColor=#545B64;rounded=0;" edge="1" parent="1">
          <mxGeometry width="100" relative="1" as="geometry">
            <mxPoint x="364.5" y="470" as="sourcePoint" />
            <mxPoint x="365" y="500" as="targetPoint" />
            <Array as="points">
              <mxPoint x="365" y="480" />
              <mxPoint x="365" y="480" />
            </Array>
          </mxGeometry>
        </mxCell>
        <mxCell id="vX-vixm7UbsISbDQlSkW-21" value="" style="ellipse;whiteSpace=wrap;html=1;" vertex="1" parent="1">
          <mxGeometry x="320" y="500" width="90" height="60" as="geometry" />
        </mxCell>
        <mxCell id="vX-vixm7UbsISbDQlSkW-22" value="終了" style="text;align=center;verticalAlign=middle;resizable=0;points=[];autosize=1;strokeColor=none;" vertex="1" parent="1">
          <mxGeometry x="345" y="520" width="40" height="20" as="geometry" />
        </mxCell>
      </root>
    </mxGraphModel>
  </diagram>
</mxfile>
